<?xml version="1.0" standalone="no"?>
<!DOCTYPE svg PUBLIC "-//W3C//DTD SVG 20010904//EN"
 "http://www.w3.org/TR/2001/REC-SVG-20010904/DTD/svg10.dtd">
<svg version="1.0" xmlns="http://www.w3.org/2000/svg"
 width="16.000000pt" height="16.000000pt" viewBox="0 0 16.000000 16.000000"
 preserveAspectRatio="xMidYMid meet">
<metadata>
Created by potrace 1.11, written by Peter Selinger 2001-2013
</metadata>
<g transform="translate(0.000000,16.000000) scale(0.001231,-0.001231)"
fill="#000000" stroke="none">
<path d="M4007 11764 c-1 -1 -20 -5 -42 -8 -355 -56 -629 -249 -796 -559 -102
-189 -179 -422 -204 -610 -2 -16 -6 -40 -9 -55 -37 -177 -43 -714 -11 -1012 2
-25 7 -70 10 -100 3 -30 8 -66 10 -80 2 -14 9 -61 15 -105 6 -44 13 -91 16
-105 2 -14 7 -40 10 -59 3 -18 8 -43 10 -55 2 -11 7 -36 10 -55 3 -18 7 -41 9
-50 2 -9 11 -52 20 -96 9 -44 27 -129 41 -189 14 -60 24 -109 22 -111 -2 -1
-115 -39 -253 -84 -934 -306 -1562 -676 -1936 -1141 -118 -147 -225 -364 -253
-515 -3 -16 -9 -46 -12 -65 -12 -64 -10 -254 3 -320 71 -349 283 -648 673
-951 100 -78 276 -194 409 -268 90 -50 406 -211 415 -211 3 0 37 -15 78 -34
157 -72 536 -209 813 -293 38 -11 60 -23 60 -33 1 -8 -9 -58 -21 -110 -24
-100 -88 -427 -99 -495 -3 -22 -10 -67 -15 -100 -16 -108 -35 -261 -46 -380
-3 -22 -6 -179 -8 -350 -3 -253 0 -338 14 -460 33 -276 92 -495 183 -686 215
-447 562 -664 1042 -654 77 1 151 5 165 9 14 3 72 15 130 26 103 20 387 104
403 119 4 5 -11 28 -34 52 -102 108 -177 259 -204 412 -5 31 -10 37 -23 32
-38 -15 -189 -56 -222 -61 -19 -3 -41 -7 -48 -9 -23 -8 -144 -19 -217 -19
-255 -1 -461 79 -626 244 -162 161 -286 429 -329 710 -6 41 -13 86 -16 100
-26 156 -26 664 1 875 2 17 6 48 9 70 18 149 91 561 112 627 3 11 12 15 27 12
12 -3 33 -7 47 -10 14 -3 66 -16 115 -29 73 -20 401 -94 480 -109 11 -2 47 -9
80 -15 66 -12 97 -18 135 -26 14 -2 39 -7 55 -9 17 -3 71 -12 120 -20 50 -8
108 -17 130 -21 22 -3 67 -10 100 -15 57 -8 98 -13 203 -25 26 -3 61 -8 78
-10 17 -2 57 -7 90 -10 32 -3 77 -9 99 -12 22 -3 47 -5 55 -5 52 1 104 -36
148 -106 48 -77 508 -665 541 -692 4 -3 26 -30 51 -60 25 -30 49 -60 55 -66 5
-6 42 -47 80 -90 39 -43 91 -102 118 -130 26 -28 47 -55 47 -61 0 -8 -65 -70
-162 -154 -10 -9 -50 -45 -89 -80 -39 -35 -75 -65 -80 -67 -12 -5 -12 -32 0
-32 18 0 154 -135 190 -189 36 -53 102 -175 101 -186 -1 -3 4 -13 9 -23 9 -15
15 -13 53 23 23 22 45 43 48 46 3 3 30 27 60 54 30 26 89 78 130 115 124 112
122 111 140 91 8 -9 33 -31 55 -50 22 -18 60 -52 85 -75 61 -56 253 -222 315
-271 28 -22 52 -43 55 -46 12 -15 303 -230 385 -286 644 -432 1250 -622 1690
-529 426 91 706 371 865 865 22 67 68 270 75 326 2 22 6 56 9 75 18 126 28
300 28 475 0 103 -9 333 -16 400 -2 17 -7 66 -10 109 -4 43 -9 86 -11 95 -1 9
-6 43 -10 76 -4 32 -9 68 -11 79 -2 11 -6 38 -9 61 -18 125 -73 404 -105 535
-35 139 -40 124 58 158 48 16 166 55 262 87 96 32 180 60 187 64 8 4 1 20 -23
50 -81 103 -135 229 -154 359 -7 48 -17 82 -24 81 -6 0 -115 -35 -243 -77
l-232 -77 -85 250 c-108 321 -264 729 -346 909 -57 124 -111 252 -114 271 -2
13 7 47 21 76 214 463 512 1280 597 1640 14 56 30 98 37 93 5 -3 17 -7 26 -9
16 -3 77 -25 358 -125 52 -18 233 -92 320 -130 60 -26 279 -135 361 -180 161
-89 417 -272 528 -378 497 -475 531 -1000 96 -1462 -24 -25 -65 -69 -93 -98
l-50 -53 24 -16 c49 -34 165 -160 198 -215 35 -60 84 -174 84 -195 1 -38 57 6
227 176 468 470 547 1005 220 1505 -107 164 -268 331 -478 495 -79 61 -210
153 -273 191 -428 256 -841 435 -1411 610 -82 26 -106 37 -103 49 2 9 8 36 14
61 10 44 14 64 26 125 3 17 11 50 16 75 6 25 13 56 15 70 3 14 11 57 19 95 22
111 33 177 49 290 4 22 8 51 11 65 5 29 11 87 21 185 3 39 8 79 10 89 20 106
19 694 -1 816 -2 14 -6 48 -10 75 -58 477 -246 865 -522 1078 -133 102 -278
163 -483 203 -19 4 -93 7 -165 8 -119 2 -168 -4 -356 -39 -61 -11 -221 -56
-275 -77 -32 -12 -61 -22 -64 -23 -19 -1 -216 -89 -316 -140 -194 -100 -462
-268 -644 -404 -95 -70 -329 -255 -364 -286 -6 -6 -51 -46 -101 -90 -49 -44
-110 -98 -135 -121 -25 -24 -62 -59 -83 -78 -21 -20 -41 -36 -45 -36 -4 0 -32
23 -62 51 -71 65 -139 127 -167 152 l-22 19 -30 -67 c-56 -122 -155 -241 -259
-310 -23 -15 -42 -31 -42 -35 0 -3 20 -25 45 -47 81 -72 143 -132 150 -143 6
-10 -15 -38 -114 -145 -79 -86 -286 -337 -388 -471 -12 -16 -84 -108 -160
-205 -76 -97 -169 -217 -208 -267 -38 -50 -83 -97 -100 -105 -16 -8 -66 -18
-109 -22 -43 -4 -86 -8 -95 -10 -9 -1 -47 -6 -86 -9 -38 -4 -77 -9 -85 -11 -8
-2 -42 -6 -75 -10 -33 -3 -67 -8 -75 -10 -8 -2 -35 -6 -60 -9 -45 -6 -328 -51
-385 -61 -244 -45 -500 -99 -708 -151 -170 -42 -217 -51 -205 -38 3 3 0 32 -8
66 -17 70 -41 190 -48 233 -3 17 -12 71 -20 120 -23 137 -25 155 -32 225 -3
36 -7 71 -9 77 -12 36 -20 248 -19 483 1 293 14 421 64 616 122 477 385 748
785 809 74 11 249 6 340 -10 109 -19 262 -63 386 -110 51 -20 93 -34 94 -33 1
2 10 35 19 73 32 129 111 265 209 358 47 45 52 39 -88 101 -191 84 -379 142
-535 166 -41 6 -86 14 -100 17 -23 5 -289 11 -293 7z m4721 -378 c209 -49 312
-104 442 -235 157 -159 264 -378 319 -652 37 -185 46 -297 46 -569 0 -201 -7
-368 -20 -440 -2 -14 -6 -47 -9 -75 -5 -52 -32 -241 -41 -285 -5 -24 -22 -120
-32 -170 -2 -14 -10 -53 -18 -88 -8 -34 -17 -74 -20 -90 -3 -15 -7 -38 -10
-52 -3 -14 -8 -36 -11 -50 -3 -13 -7 -26 -9 -28 -2 -2 -50 6 -107 18 -56 12
-112 24 -123 26 -11 2 -31 6 -45 9 -59 13 -122 23 -235 40 -22 3 -65 10 -95
15 -72 12 -120 19 -178 25 -26 3 -54 8 -62 10 -8 2 -37 7 -65 10 -27 4 -57 8
-65 10 -8 2 -42 7 -75 11 -33 3 -62 8 -65 9 -3 2 -34 6 -70 10 -36 4 -72 8
-80 10 -8 1 -58 8 -110 15 -52 6 -109 18 -126 26 -36 17 -38 19 -225 269 -114
153 -375 483 -399 505 -3 3 -48 55 -100 115 -162 188 -317 355 -528 570 -3 3
212 191 338 296 50 41 253 194 355 267 96 68 271 172 410 243 245 125 466 201
655 225 25 4 47 8 49 10 5 5 283 -3 309 -10z m-2228 -1682 c223 -237 646 -746
635 -763 -2 -3 -38 -3 -82 0 -83 7 -1123 3 -1233 -5 -36 -2 -112 -7 -170 -10
-155 -9 -262 -17 -288 -21 -28 -5 -31 -10 81 138 234 312 508 639 727 870 l64
68 91 -93 c49 -52 128 -134 175 -184z m190 -888 c449 -15 536 -19 560 -30 45
-20 558 -777 740 -1091 10 -16 39 -66 65 -110 188 -316 535 -979 535 -1023 0
-20 -197 -418 -285 -577 -15 -27 -52 -95 -83 -150 -237 -429 -640 -1067 -682
-1080 -32 -10 -58 -13 -170 -19 -58 -4 -152 -10 -210 -14 -206 -14 -1164 -6
-1505 13 -44 2 -132 7 -195 11 -63 3 -128 7 -145 9 -16 2 -59 7 -95 10 -36 4
-75 8 -88 10 -13 2 -56 7 -95 11 -85 8 -98 16 -139 80 -92 145 -248 396 -248
400 0 2 -17 33 -39 67 -37 60 -90 151 -145 250 -14 26 -38 68 -53 95 -127 222
-437 849 -437 882 0 38 250 552 396 814 28 50 61 109 73 131 73 134 89 162 99
175 6 8 16 24 22 35 57 109 300 500 440 710 167 249 208 307 228 320 21 14 74
20 266 30 58 3 139 8 180 10 41 3 129 7 195 10 66 4 140 8 165 10 25 2 108 7
185 10 77 4 141 8 143 9 1 2 37 2 80 0 42 -2 151 -5 242 -8z m-1647 -91 c-4
-5 -48 -71 -98 -145 -332 -493 -622 -991 -923 -1587 -70 -139 -130 -253 -133
-253 -4 0 -9 8 -12 18 -3 9 -30 73 -60 142 -116 267 -300 774 -412 1135 -44
140 -95 336 -95 361 0 26 418 131 785 199 50 9 110 20 135 26 25 5 62 12 84
15 21 3 48 8 60 10 11 2 64 11 116 19 52 9 106 18 120 20 14 3 63 10 110 16
47 6 96 12 110 15 14 2 59 7 100 10 41 4 77 8 78 10 10 8 40 -1 35 -11z m3027
1 c56 -7 138 -17 165 -21 11 -1 47 -6 80 -10 33 -4 69 -9 80 -11 11 -2 40 -7
65 -10 25 -3 54 -8 65 -10 11 -2 40 -7 65 -10 25 -3 52 -7 60 -9 8 -2 30 -7
48 -10 76 -12 101 -17 167 -30 39 -8 81 -16 95 -19 30 -6 117 -24 145 -30 11
-2 63 -14 115 -26 52 -11 96 -23 99 -26 9 -9 -90 -371 -132 -479 -6 -16 -12
-34 -13 -40 -12 -69 -270 -754 -292 -777 -4 -4 -23 23 -42 60 -19 37 -54 103
-78 147 -25 44 -58 105 -75 135 -168 306 -361 622 -600 983 l-138 209 38 -6
c21 -3 58 -8 83 -10z m-4858 -541 c27 -93 51 -177 53 -185 2 -8 35 -109 73
-225 111 -335 243 -677 391 -1015 47 -108 79 -194 77 -207 -3 -12 -21 -59 -41
-105 -83 -188 -87 -199 -135 -313 -54 -131 -143 -358 -163 -415 -8 -25 -25
-70 -37 -100 -12 -30 -24 -62 -26 -70 -18 -75 -141 -420 -150 -420 -30 0 -580
193 -699 246 -496 218 -807 413 -1043 651 -409 414 -463 856 -155 1291 66 93
259 284 373 369 209 155 498 319 765 433 55 23 114 49 130 56 111 48 504 184
524 181 8 -1 32 -65 63 -172z m798 -2027 c142 -286 329 -631 480 -886 63 -106
120 -200 125 -210 20 -35 60 -99 102 -164 24 -37 43 -70 43 -73 0 -6 -62 0
-120 10 -8 2 -37 6 -65 9 -84 12 -119 17 -135 21 -8 2 -33 7 -55 10 -23 3 -52
7 -65 10 -14 3 -52 10 -85 15 -46 8 -323 64 -425 85 -52 11 -243 58 -285 70
-27 8 -65 18 -82 21 -18 4 -33 12 -33 19 0 12 109 356 148 465 54 154 161 429
223 578 39 92 78 186 87 210 9 23 19 42 22 42 3 0 57 -104 120 -232z m5049
-693 c83 -231 156 -431 162 -444 12 -30 5 -38 -46 -45 -22 -4 -101 -18 -175
-31 -74 -13 -151 -26 -170 -29 -19 -3 -60 -10 -90 -16 -30 -6 -66 -13 -80 -15
-14 -2 -77 -13 -140 -25 -63 -12 -124 -23 -135 -24 -32 -5 -98 -17 -122 -22
-18 -3 -8 19 64 144 47 81 136 235 198 342 61 107 138 240 170 295 111 190
168 290 179 312 l11 22 11 -22 c7 -12 80 -211 163 -442z m340 -1135 c16 -74
33 -151 36 -170 3 -19 8 -42 10 -50 2 -8 6 -33 9 -55 4 -22 8 -51 11 -65 9
-50 15 -86 20 -130 3 -25 8 -54 10 -66 2 -11 7 -45 10 -75 3 -30 8 -67 10 -84
20 -153 28 -587 13 -745 -27 -294 -98 -535 -216 -736 -239 -406 -680 -528
-1235 -343 -123 41 -143 49 -314 130 -109 50 -252 132 -366 208 -38 25 -77 51
-86 56 -9 6 -34 23 -56 39 -22 17 -65 48 -95 70 -30 23 -57 43 -60 46 -3 3
-23 18 -45 35 -22 16 -42 31 -45 35 -3 3 -30 25 -60 50 -30 25 -57 47 -60 50
-9 10 -215 185 -242 206 -16 12 -28 26 -28 30 0 5 35 45 78 89 233 243 366
396 608 700 43 55 84 106 91 115 7 8 105 132 218 275 113 143 216 268 229 277
12 9 47 20 77 23 30 3 65 8 79 10 14 2 55 6 92 10 37 3 75 7 85 9 10 2 45 7
78 10 33 4 71 9 85 11 14 2 41 6 60 9 245 36 389 60 545 90 11 2 40 7 65 12
25 4 47 8 50 9 16 3 88 18 105 21 11 2 58 12 105 23 47 10 88 16 92 12 4 -3
20 -67 37 -141z m-3812 -125 c398 -27 964 -35 1376 -22 97 3 177 3 177 0 0 -5
-284 -360 -335 -418 -238 -274 -262 -299 -437 -479 l-137 -141 -32 35 c-17 19
-52 58 -78 85 -26 28 -68 73 -92 100 -24 28 -70 80 -101 115 -59 69 -83 96
-108 127 -59 72 -106 129 -110 133 -9 7 -202 256 -294 378 l-78 103 79 -5 c43
-3 120 -8 170 -11z"/>
<path d="M6137 8023 c-350 -488 -582 -930 -622 -1188 -9 -59 -6 -194 5 -240 6
-22 12 -47 14 -55 36 -140 145 -295 272 -386 263 -188 603 -183 860 10 206
154 315 438 269 700 -8 44 -56 198 -83 261 -59 143 -223 439 -351 635 -79 121
-261 374 -271 378 -4 2 -46 -50 -93 -115z"/>
<path d="M5328 8032 c-1 -5 -51 -61 -110 -123 -58 -63 -133 -143 -166 -179
l-60 -64 35 -56 c19 -30 41 -62 47 -70 7 -8 27 -38 44 -66 30 -47 31 -53 18
-80 -37 -78 -47 -104 -64 -173 -11 -40 -18 -88 -17 -106 2 -37 12 -33 -220
-81 -71 -15 -134 -30 -138 -34 -7 -6 -12 -333 -8 -497 1 -21 4 -21 139 -21 75
0 142 -1 149 -1 6 -1 28 -54 48 -118 36 -113 69 -192 86 -203 4 -3 -1 -23 -11
-45 -11 -22 -19 -43 -20 -47 0 -4 -16 -40 -35 -79 -19 -40 -35 -78 -35 -86 0
-7 59 -101 131 -209 l130 -195 32 19 c18 11 80 49 139 86 l108 66 57 -37 c121
-77 262 -130 356 -132 l27 -1 -2 -121 c-1 -78 2 -123 9 -127 9 -6 181 -7 430
-3 l52 1 -1 98 c-1 163 -6 149 58 157 90 11 209 57 309 120 28 17 55 34 61 38
6 4 73 -32 149 -78 76 -47 139 -85 140 -85 1 0 62 90 134 199 l133 199 -56
125 -55 125 29 54 c16 29 44 104 63 167 l35 114 151 0 151 -1 -2 261 -3 261
-85 18 c-47 9 -96 20 -109 22 -28 6 -132 29 -143 32 -5 1 -12 2 -18 3 -5 0
-10 20 -10 44 -1 59 -16 119 -56 219 l-35 87 76 115 c42 63 75 119 73 125 -1
5 -32 40 -68 78 -36 38 -112 119 -169 180 l-103 112 -107 -94 -107 -93 58
-119 c126 -256 206 -488 257 -743 29 -144 23 -402 -11 -521 -86 -295 -294
-496 -623 -603 -112 -36 -304 -73 -365 -69 -44 2 -152 14 -163 18 -6 2 -23 7
-37 9 -42 8 -71 15 -90 21 -10 3 -27 8 -37 10 -10 2 -49 15 -86 29 -671 256
-784 907 -320 1853 45 94 52 115 41 125 -28 26 -174 154 -190 166 -9 7 -18 9
-20 4z"/>
<path d="M5518 11626 c-1 -2 -33 -6 -70 -10 -191 -18 -398 -146 -504 -312 -56
-87 -81 -150 -110 -279 -14 -57 -5 -217 16 -291 112 -412 543 -631 942 -481
388 147 564 609 375 982 -107 212 -327 364 -552 381 -38 3 -75 7 -82 9 -6 2
-13 2 -15 1z m97 -70 c282 -33 514 -260 561 -546 35 -217 -58 -457 -231 -597
-327 -264 -802 -160 -991 217 -139 277 -50 626 209 814 35 25 187 100 187 92
0 -2 19 2 43 8 23 7 67 14 97 15 30 2 57 4 59 7 2 2 7 2 10 0 3 -2 29 -6 56
-10z"/>
<path d="M5568 11419 c-306 -32 -536 -295 -522 -596 14 -278 268 -461 556
-402 71 15 205 80 246 119 33 34 40 58 21 77 -14 14 -29 9 -104 -38 -296 -185
-610 -36 -606 289 2 194 142 389 326 452 78 27 204 23 267 -8 131 -64 190
-208 153 -370 -25 -105 -68 -173 -134 -207 -24 -12 -31 -12 -47 -1 -18 13 -16
23 38 222 62 225 62 241 7 222 -17 -6 -48 -7 -72 -3 -94 16 -109 16 -164 0
-111 -31 -182 -94 -237 -208 -30 -61 -33 -77 -31 -141 2 -76 14 -107 51 -143
66 -62 202 -52 282 20 l22 20 0 -26 c0 -61 111 -76 196 -27 158 90 245 312
195 496 -32 118 -158 227 -289 249 -66 11 -82 11 -154 4z m113 -336 c8 -8 2
-41 -25 -123 -45 -139 -57 -163 -98 -193 -43 -32 -69 -40 -113 -31 -121 22
-75 269 64 344 27 16 51 19 98 17 35 -2 68 -8 74 -14z"/>
<path d="M10840 6004 c-229 -44 -421 -198 -519 -417 -15 -34 -32 -80 -36 -102
-5 -22 -10 -47 -12 -55 -11 -41 -9 -211 3 -265 34 -151 110 -284 219 -383 59
-55 180 -132 206 -132 8 0 19 -4 25 -9 17 -16 147 -43 222 -45 288 -9 536 140
665 399 30 62 39 84 54 145 17 68 21 219 8 295 -10 60 -32 121 -73 205 -54
110 -186 240 -302 297 -47 23 -114 50 -150 59 -81 21 -225 25 -310 8z m316
-75 c224 -69 393 -245 449 -468 32 -128 22 -278 -27 -395 -83 -197 -245 -338
-449 -391 -63 -17 -208 -22 -259 -11 -14 4 -38 9 -53 11 -78 15 -218 91 -288
158 -131 125 -202 293 -202 477 0 108 17 179 68 285 90 185 289 332 480 352
28 3 51 7 53 8 11 10 170 -8 228 -26z"/>
<path d="M10811 5619 c-103 -27 -209 -81 -277 -143 l-57 -51 37 -33 37 -32 59
49 c212 177 533 175 738 -5 l49 -43 37 33 38 33 -48 42 c-69 61 -151 107 -240
137 -107 36 -265 42 -373 13z"/>
<path d="M10860 5434 c-80 -21 -149 -56 -200 -102 l-45 -41 33 -33 c24 -24 36
-30 46 -23 139 98 207 122 315 111 71 -6 166 -46 220 -93 l34 -29 36 33 36 34
-45 40 c-48 42 -130 86 -189 101 -61 16 -182 17 -241 2z"/>
<path d="M10895 5242 c-49 -14 -95 -40 -127 -73 -16 -16 -15 -19 18 -48 l34
-31 41 27 c70 46 184 42 238 -8 l22 -21 34 27 c19 14 35 32 35 39 0 17 -76 70
-120 85 -56 18 -122 19 -175 3z"/>
<path d="M10959 5062 c-28 -3 -76 -47 -79 -72 -5 -37 2 -61 26 -89 55 -66 164
-22 164 66 0 56 -54 103 -111 95z"/>
<path d="M5235 2784 c-180 -40 -322 -130 -424 -268 -76 -104 -139 -264 -109
-282 4 -3 6 -10 3 -15 -4 -5 -1 -9 4 -9 6 0 11 9 11 20 0 30 0 30 25 95 39
100 59 134 78 135 10 0 50 -7 90 -15 40 -9 82 -18 95 -21 22 -4 23 -8 16 -62
-3 -31 -8 -60 -10 -63 -2 -4 3 -9 11 -13 19 -7 21 -1 29 63 7 57 13 74 24 67
4 -2 54 -7 112 -10 58 -4 114 -8 125 -11 11 -2 25 -4 32 -4 7 -1 10 -18 8 -50
-2 -34 1 -51 10 -55 20 -7 25 3 25 59 l0 51 43 0 c23 1 86 4 140 8 76 6 98 5
101 -6 4 -10 12 -69 15 -109 1 -3 8 -6 16 -6 12 0 14 12 9 68 l-7 67 72 16
c40 9 91 19 114 22 l42 6 32 -69 c18 -37 39 -95 48 -127 18 -72 21 -75 29 -34
8 42 -25 143 -77 230 -91 151 -246 268 -417 313 -82 22 -237 26 -315 9z m118
-29 c2 -5 3 -80 2 -165 l0 -155 -55 1 c-30 1 -91 4 -135 7 -44 3 -84 6 -88 6
-10 1 -5 33 17 121 38 147 43 157 89 169 100 27 164 34 170 16z m132 0 c48 -7
103 -26 112 -38 18 -23 77 -257 67 -266 -8 -8 -34 -11 -156 -18 -105 -5 -118
-4 -119 11 0 9 0 81 0 161 0 80 0 149 0 155 1 9 19 8 96 -5z m261 -106 c49
-33 154 -134 154 -148 0 -8 -29 -15 -176 -46 -19 -4 -23 5 -44 93 -12 53 -26
111 -30 129 l-8 32 32 -16 c17 -9 50 -28 72 -44z m-656 46 c0 -2 -9 -44 -21
-92 -11 -48 -23 -99 -25 -113 -3 -13 -7 -27 -10 -29 -3 -4 -57 4 -168 25 -29
5 -29 10 -5 43 45 61 229 195 229 166z"/>
<path d="M4818 2233 c-11 -3 -24 -29 -38 -76 -12 -40 -31 -103 -43 -140 l-21
-68 -36 138 -35 138 -33 3 c-17 2 -32 -1 -32 -7 0 -5 11 -45 24 -88 14 -43 36
-118 51 -166 27 -88 27 -88 58 -85 27 3 33 9 43 43 7 22 26 83 42 135 l30 95
20 -70 c12 -38 21 -73 21 -78 1 -4 8 -21 16 -37 8 -16 15 -32 15 -35 0 -3 3
-17 6 -31 5 -21 11 -25 37 -22 31 3 32 4 87 173 l56 170 -29 3 c-17 2 -33 -2
-38 -9 -4 -7 -22 -67 -39 -133 -18 -67 -33 -122 -35 -124 -3 -4 -7 9 -54 164
-31 101 -40 114 -73 107z"/>
<path d="M5369 2232 c-24 -3 -29 -13 -70 -143 l-43 -140 -36 138 -35 138 -32
3 c-36 4 -38 0 -24 -44 11 -33 80 -260 88 -287 3 -14 13 -17 36 -15 30 3 32 6
67 113 53 163 50 158 66 100 8 -27 27 -87 42 -133 26 -81 27 -83 57 -80 30 3
31 5 86 173 47 145 53 171 40 176 -9 3 -24 4 -33 1 -19 -5 -29 -33 -70 -197
l-22 -90 -28 95 c-58 191 -60 195 -89 192z"/>
<path d="M5660 2224 c0 -3 21 -74 46 -157 25 -84 47 -160 50 -169 4 -12 15
-18 34 -18 25 0 31 6 48 53 11 28 30 87 43 130 12 42 26 77 30 77 4 0 10 -12
13 -27 4 -16 21 -74 38 -130 30 -99 32 -103 60 -103 33 0 29 -9 96 198 l50
153 -36 -3 c-21 -2 -36 -9 -38 -18 -2 -8 -13 -49 -24 -90 -12 -41 -26 -94 -32
-118 -5 -24 -12 -41 -15 -39 -2 3 -22 63 -42 134 -37 125 -39 128 -68 131 -29
3 -30 3 -62 -105 -18 -59 -35 -115 -38 -123 -4 -8 -7 -18 -7 -22 -4 -33 -18 2
-47 117 l-33 135 -33 0 c-18 0 -33 -3 -33 -6z"/>
<path d="M5366 1931 c-4 -6 -8 -31 -10 -56 -2 -26 -6 -48 -8 -50 -2 -2 -60 -7
-128 -10 -69 -4 -128 -9 -132 -11 -9 -6 -25 60 -27 111 -1 28 -19 6 -24 -30
-2 -16 0 -42 4 -57 7 -26 6 -27 -49 -38 -32 -7 -82 -18 -112 -26 -74 -19 -74
-19 -96 21 -18 33 -44 48 -44 24 0 -23 63 -121 113 -175 94 -104 229 -184 356
-214 62 -15 224 -19 291 -8 132 22 296 116 393 224 43 48 117 166 110 177 -10
17 -30 5 -46 -28 -9 -19 -20 -35 -24 -35 -5 0 -58 11 -120 24 -62 13 -115 21
-118 17 -4 -3 -4 11 0 32 4 20 4 54 0 75 -6 31 -9 34 -16 17 -4 -11 -11 -41
-14 -67 l-6 -46 -52 3 c-133 10 -212 17 -214 19 -2 1 -5 26 -7 55 -5 56 -10
69 -20 52z m-15 -149 c7 -41 2 -342 -6 -343 -19 -3 -40 -1 -85 6 -25 4 -50 8
-57 8 -10 0 -51 83 -60 122 -1 6 -15 50 -30 98 -31 102 -31 102 55 106 31 1
57 3 58 4 6 6 124 5 125 -1z m217 -7 c93 -8 89 -1 56 -105 -10 -30 -18 -57
-18 -60 -2 -8 -27 -73 -47 -117 -12 -26 -26 -43 -37 -44 -9 0 -25 -2 -34 -4
-77 -15 -98 -14 -99 3 -1 16 0 288 1 325 0 15 7 17 48 13 26 -3 84 -8 130 -11z
m-493 -90 c10 -38 29 -99 42 -134 13 -35 21 -66 19 -69 -6 -6 -92 35 -130 62
-65 45 -166 142 -166 158 0 4 0 11 -1 16 0 9 204 51 212 43 3 -3 14 -37 24
-76z m673 66 c27 -1 149 -26 156 -32 11 -10 -40 -70 -112 -131 -51 -43 -178
-115 -187 -106 -2 2 14 59 35 127 22 68 40 132 40 142 0 15 5 16 30 9 17 -5
34 -9 38 -9z"/>
</g>
</svg>
